<svg width="20" height="20" viewBox="0 0 20 20" fill="none" xmlns="http://www.w3.org/2000/svg">
<path d="M19.3617 0H5.74468C5.57539 0 5.41304 0.067249 5.29334 0.186953C5.17363 0.306657 5.10638 0.469011 5.10638 0.638298V5.10638H0.638298C0.469011 5.10638 0.306657 5.17363 0.186953 5.29334C0.067249 5.41304 0 5.57539 0 5.74468V19.3617C0 19.531 0.067249 19.6933 0.186953 19.813C0.306657 19.9328 0.469011 20 0.638298 20H14.2553C14.4246 20 14.587 19.9328 14.7067 19.813C14.8264 19.6933 14.8936 19.531 14.8936 19.3617V14.8936H19.3617C19.531 14.8936 19.6933 14.8264 19.813 14.7067C19.9328 14.587 20 14.4246 20 14.2553V0.638298C20 0.469011 19.9328 0.306657 19.813 0.186953C19.6933 0.067249 19.531 0 19.3617 0ZM13.617 18.7234H1.2766V6.38298H13.617V18.7234ZM18.7234 13.617H14.8936V5.74468C14.8936 5.57539 14.8264 5.41304 14.7067 5.29334C14.587 5.17363 14.4246 5.10638 14.2553 5.10638H6.38298V1.2766H18.7234V13.617Z" fill="#E78B01"/>
</svg>
