<svg width="250" height="66" viewBox="0 0 250 66" fill="none" xmlns="http://www.w3.org/2000/svg">
<path d="M1.6635 3.327C2.58223 3.327 3.327 2.58222 3.327 1.6635C3.327 0.744772 2.58223 0 1.6635 0C0.744776 0 0 0.744772 0 1.6635C0 2.58222 0.744776 3.327 1.6635 3.327Z" fill="#F4C109"/>
<path d="M1.6635 13.308C2.58223 13.308 3.327 12.5632 3.327 11.6445C3.327 10.7257 2.58223 9.98096 1.6635 9.98096C0.744776 9.98096 0 10.7257 0 11.6445C0 12.5632 0.744776 13.308 1.6635 13.308Z" fill="#F4C109"/>
<path d="M1.6635 23.2889C2.58223 23.2889 3.327 22.5441 3.327 21.6254C3.327 20.7067 2.58223 19.9619 1.6635 19.9619C0.744776 19.9619 0 20.7067 0 21.6254C0 22.5441 0.744776 23.2889 1.6635 23.2889Z" fill="#F4C109"/>
<path d="M1.6635 33.2701C2.58223 33.2701 3.327 32.5253 3.327 31.6066C3.327 30.6879 2.58223 29.9431 1.6635 29.9431C0.744776 29.9431 0 30.6879 0 31.6066C0 32.5253 0.744776 33.2701 1.6635 33.2701Z" fill="#F4C109"/>
<path d="M1.6635 43.2511C2.58223 43.2511 3.327 42.5063 3.327 41.5876C3.327 40.6688 2.58223 39.9241 1.6635 39.9241C0.744776 39.9241 0 40.6688 0 41.5876C0 42.5063 0.744776 43.2511 1.6635 43.2511Z" fill="#F4C109"/>
<path d="M1.6635 53.232C2.58223 53.232 3.327 52.4873 3.327 51.5685C3.327 50.6498 2.58223 49.905 1.6635 49.905C0.744776 49.905 0 50.6498 0 51.5685C0 52.4873 0.744776 53.232 1.6635 53.232Z" fill="#F4C109"/>
<path d="M1.6635 63.2132C2.58223 63.2132 3.327 62.4685 3.327 61.5497C3.327 60.631 2.58223 59.8862 1.6635 59.8862C0.744776 59.8862 0 60.631 0 61.5497C0 62.4685 0.744776 63.2132 1.6635 63.2132Z" fill="#F4C109"/>
<path d="M11.644 3.327C12.5627 3.327 13.3075 2.58222 13.3075 1.6635C13.3075 0.744772 12.5627 0 11.644 0C10.7252 0 9.98047 0.744772 9.98047 1.6635C9.98047 2.58222 10.7252 3.327 11.644 3.327Z" fill="#FC8732"/>
<path d="M11.644 13.308C12.5627 13.308 13.3075 12.5632 13.3075 11.6445C13.3075 10.7257 12.5627 9.98096 11.644 9.98096C10.7252 9.98096 9.98047 10.7257 9.98047 11.6445C9.98047 12.5632 10.7252 13.308 11.644 13.308Z" fill="#FC8732"/>
<path d="M11.644 33.2701C12.5627 33.2701 13.3075 32.5253 13.3075 31.6066C13.3075 30.6879 12.5627 29.9431 11.644 29.9431C10.7252 29.9431 9.98047 30.6879 9.98047 31.6066C9.98047 32.5253 10.7252 33.2701 11.644 33.2701Z" fill="#FC8732"/>
<path d="M11.644 53.232C12.5627 53.232 13.3075 52.4873 13.3075 51.5685C13.3075 50.6498 12.5627 49.905 11.644 49.905C10.7252 49.905 9.98047 50.6498 9.98047 51.5685C9.98047 52.4873 10.7252 53.232 11.644 53.232Z" fill="#FC8732"/>
<path d="M11.644 63.2132C12.5627 63.2132 13.3075 62.4685 13.3075 61.5497C13.3075 60.631 12.5627 59.8862 11.644 59.8862C10.7252 59.8862 9.98047 60.631 9.98047 61.5497C9.98047 62.4685 10.7252 63.2132 11.644 63.2132Z" fill="#FC8732"/>
<path d="M21.6244 13.308C22.5432 13.308 23.2879 12.5632 23.2879 11.6445C23.2879 10.7257 22.5432 9.98096 21.6244 9.98096C20.7057 9.98096 19.9609 10.7257 19.9609 11.6445C19.9609 12.5632 20.7057 13.308 21.6244 13.308Z" fill="#FC2200"/>
<path d="M21.6244 53.232C22.5432 53.232 23.2879 52.4873 23.2879 51.5685C23.2879 50.6498 22.5432 49.905 21.6244 49.905C20.7057 49.905 19.9609 50.6498 19.9609 51.5685C19.9609 52.4873 20.7057 53.232 21.6244 53.232Z" fill="#FC2200"/>
<path d="M31.6049 13.308C32.5236 13.308 33.2684 12.5632 33.2684 11.6445C33.2684 10.7257 32.5236 9.98096 31.6049 9.98096C30.6862 9.98096 29.9414 10.7257 29.9414 11.6445C29.9414 12.5632 30.6862 13.308 31.6049 13.308Z" fill="#1B925F"/>
<path d="M31.6049 33.2701C32.5236 33.2701 33.2684 32.5253 33.2684 31.6066C33.2684 30.6879 32.5236 29.9431 31.6049 29.9431C30.6862 29.9431 29.9414 30.6879 29.9414 31.6066C29.9414 32.5253 30.6862 33.2701 31.6049 33.2701Z" fill="#1B925F"/>
<path d="M31.6049 53.232C32.5236 53.232 33.2684 52.4873 33.2684 51.5685C33.2684 50.6498 32.5236 49.905 31.6049 49.905C30.6862 49.905 29.9414 50.6498 29.9414 51.5685C29.9414 52.4873 30.6862 53.232 31.6049 53.232Z" fill="#1B925F"/>
<path d="M41.5893 23.2889C42.508 23.2889 43.2528 22.5441 43.2528 21.6254C43.2528 20.7067 42.508 19.9619 41.5893 19.9619C40.6706 19.9619 39.9258 20.7067 39.9258 21.6254C39.9258 22.5441 40.6706 23.2889 41.5893 23.2889Z" fill="#008274"/>
<path d="M41.5893 33.2701C42.508 33.2701 43.2528 32.5253 43.2528 31.6066C43.2528 30.6879 42.508 29.9431 41.5893 29.9431C40.6706 29.9431 39.9258 30.6879 39.9258 31.6066C39.9258 32.5253 40.6706 33.2701 41.5893 33.2701Z" fill="#008274"/>
<path d="M41.5893 43.2511C42.508 43.2511 43.2528 42.5063 43.2528 41.5876C43.2528 40.6688 42.508 39.9241 41.5893 39.9241C40.6706 39.9241 39.9258 40.6688 39.9258 41.5876C39.9258 42.5063 40.6706 43.2511 41.5893 43.2511Z" fill="#008274"/>
<path d="M51.5698 33.2701C52.4885 33.2701 53.2333 32.5253 53.2333 31.6066C53.2333 30.6879 52.4885 29.9431 51.5698 29.9431C50.651 29.9431 49.9062 30.6879 49.9062 31.6066C49.9062 32.5253 50.651 33.2701 51.5698 33.2701Z" fill="#00389E"/>
<path d="M11.644 23.2889C12.5627 23.2889 13.3075 22.5441 13.3075 21.6254C13.3075 20.7067 12.5627 19.9619 11.644 19.9619C10.7252 19.9619 9.98047 20.7067 9.98047 21.6254C9.98047 22.5441 10.7252 23.2889 11.644 23.2889Z" fill="#FC8732"/>
<path d="M11.644 43.2511C12.5627 43.2511 13.3075 42.5063 13.3075 41.5876C13.3075 40.6688 12.5627 39.9241 11.644 39.9241C10.7252 39.9241 9.98047 40.6688 9.98047 41.5876C9.98047 42.5063 10.7252 43.2511 11.644 43.2511Z" fill="#FC8732"/>
<path d="M21.6244 23.2889C22.5432 23.2889 23.2879 22.5441 23.2879 21.6254C23.2879 20.7067 22.5432 19.9619 21.6244 19.9619C20.7057 19.9619 19.9609 20.7067 19.9609 21.6254C19.9609 22.5441 20.7057 23.2889 21.6244 23.2889Z" fill="#FC2200"/>
<path d="M21.6244 33.2701C22.5432 33.2701 23.2879 32.5253 23.2879 31.6066C23.2879 30.6879 22.5432 29.9431 21.6244 29.9431C20.7057 29.9431 19.9609 30.6879 19.9609 31.6066C19.9609 32.5253 20.7057 33.2701 21.6244 33.2701Z" fill="#FC2200"/>
<path d="M21.6244 43.2511C22.5432 43.2511 23.2879 42.5063 23.2879 41.5876C23.2879 40.6688 22.5432 39.9241 21.6244 39.9241C20.7057 39.9241 19.9609 40.6688 19.9609 41.5876C19.9609 42.5063 20.7057 43.2511 21.6244 43.2511Z" fill="#FC2200"/>
<path d="M31.6049 23.2889C32.5236 23.2889 33.2684 22.5441 33.2684 21.6254C33.2684 20.7067 32.5236 19.9619 31.6049 19.9619C30.6862 19.9619 29.9414 20.7067 29.9414 21.6254C29.9414 22.5441 30.6862 23.2889 31.6049 23.2889Z" fill="#1B925F"/>
<path d="M31.6049 43.2511C32.5236 43.2511 33.2684 42.5063 33.2684 41.5876C33.2684 40.6688 32.5236 39.9241 31.6049 39.9241C30.6862 39.9241 29.9414 40.6688 29.9414 41.5876C29.9414 42.5063 30.6862 43.2511 31.6049 43.2511Z" fill="#1B925F"/>
<path d="M31.6079 41.9035H10.8828L30.8449 21.9414H11.6458V21.3093H32.3709L12.4088 41.2714H31.6079V41.9035Z" fill="black"/>
<path d="M60.8164 13.335H69.4097C73.2961 13.335 76.4968 14.1135 79.0112 15.6698C81.5256 17.2264 83.3904 19.3769 84.6063 22.1214C85.8221 24.8663 86.4301 28.0068 86.4301 31.5433C86.4301 35.0986 85.8222 38.2486 84.6063 40.9931C83.3905 43.738 81.53 45.8931 79.025 47.4585C76.5196 49.0242 73.3145 49.8071 69.4097 49.8071H60.8164V13.335ZM65.5139 17.6453V45.4967H69.0228C71.8962 45.4967 74.2451 44.8983 76.0685 43.7006C77.8923 42.5036 79.2413 40.8595 80.1164 38.7686C80.9911 36.6784 81.4379 34.2881 81.4564 31.5987C81.4564 28.8908 81.0234 26.4918 80.1578 24.4009C79.2918 22.3104 77.9381 20.6615 76.0962 19.4551C74.2539 18.2487 71.8963 17.6451 69.0229 17.6451L65.5139 17.6453Z" fill="black"/>
<path d="M92.5093 19.3584C91.6433 19.3584 90.9019 19.0502 90.2849 18.4329C89.6676 17.8159 89.3594 17.0748 89.3594 16.2085C89.3594 15.3429 89.6676 14.597 90.2849 13.9706C90.9019 13.3445 91.6434 13.031 92.5093 13.031C93.0799 13.031 93.6097 13.1787 94.0979 13.4734C94.5857 13.7681 94.9773 14.1503 95.2724 14.6199C95.5668 15.0895 95.7145 15.6194 95.7145 16.2085C95.7145 17.0748 95.401 17.8159 94.7749 18.4329C94.1485 19.0502 93.3934 19.3584 92.5093 19.3584ZM90.05 49.8072V27.1228H94.8578V49.8072H90.05Z" fill="black"/>
<path d="M117.624 27.1228V31.3773C117.497 30.8261 117.07 30.1613 116.339 29.3896C115.613 28.6145 114.645 27.9323 113.439 27.3433C112.233 26.7542 110.81 26.458 109.17 26.458C107.072 26.458 105.167 26.961 103.466 27.9669C101.76 28.9694 100.406 30.368 99.4039 32.1664C98.398 33.9612 97.8984 36.0661 97.8984 38.4776C97.8984 40.8925 98.3979 42.9975 99.4039 44.7923C100.406 46.5871 101.76 47.9824 103.466 48.9779C105.167 49.9735 107.072 50.4696 109.17 50.4696C110.827 50.4696 112.271 50.1423 113.494 49.4912C114.72 48.8367 115.688 48.1029 116.395 47.2933C117.104 46.4837 117.535 45.8464 117.68 45.3848V50.1389C117.68 51.6133 117.387 52.9396 116.798 54.1178C116.209 55.296 115.351 56.2296 114.228 56.922C113.105 57.6144 111.73 57.9589 110.111 57.9589C108.454 57.9589 107.107 57.766 106.077 57.3767C105.043 56.9908 104.23 56.5258 103.631 55.9815C103.032 55.4372 102.56 54.9273 102.208 54.4485L99.0595 57.4594C99.7037 58.3619 100.565 59.1509 101.643 59.8226C102.718 60.4944 103.979 61.0146 105.426 61.3832C106.873 61.7518 108.488 61.9379 110.276 61.9379C112.543 61.9379 114.586 61.5004 116.412 60.6253C118.234 59.7503 119.685 58.4584 120.763 56.7566C121.838 55.0513 122.379 52.9464 122.379 50.4419V27.1228H117.624ZM116.605 42.6907C115.957 43.8999 115.086 44.8335 113.98 45.4984C112.874 46.1599 111.62 46.4906 110.221 46.4906C108.912 46.4906 107.682 46.1633 106.532 45.5122C105.381 44.8576 104.447 43.931 103.727 42.7321C103.011 41.5367 102.649 40.1173 102.649 38.4775C102.649 36.8377 103.011 35.4218 103.727 34.223C104.447 33.0276 105.381 32.0974 106.532 31.4326C107.682 30.7711 108.912 30.437 110.221 30.437C111.62 30.437 112.874 30.7746 113.98 31.4464C115.085 32.1182 115.957 33.0586 116.605 34.2644C117.249 35.4701 117.569 36.8757 117.569 38.4776C117.569 40.0795 117.249 41.485 116.605 42.6907Z" fill="black"/>
<path d="M129.228 19.3584C128.362 19.3584 127.621 19.0502 127.004 18.4329C126.386 17.8159 126.078 17.0748 126.078 16.2085C126.078 15.3429 126.386 14.597 127.004 13.9706C127.621 13.3445 128.362 13.031 129.228 13.031C129.799 13.031 130.328 13.1787 130.817 13.4734C131.304 13.7681 131.696 14.1503 131.991 14.6199C132.286 15.0895 132.433 15.6194 132.433 16.2085C132.433 17.0748 132.12 17.8159 131.494 18.4329C130.867 19.0502 130.112 19.3584 129.228 19.3584ZM126.769 49.8072V27.1228H131.577V49.8072H126.769Z" fill="black"/>
<path d="M134.23 27.1228H138.679V17.8113H143.459V27.1228H149.289V31.2396H143.459V42.4577C143.459 43.7839 143.694 44.7605 144.164 45.3863C144.633 46.0127 145.264 46.3259 146.056 46.3259C146.756 46.3259 147.3 46.197 147.686 45.939C148.073 45.6813 148.303 45.5064 148.377 45.4138L150.284 48.9506C150.173 49.0431 149.879 49.2177 149.399 49.4754C148.92 49.7338 148.303 49.9636 147.548 50.1664C146.793 50.3689 145.909 50.4702 144.896 50.4702C143.128 50.4702 141.649 49.9316 140.461 48.854C139.273 47.7761 138.679 46.0681 138.679 43.7282V31.2395H134.23V27.1228Z" fill="black"/>
<path d="M169.928 49.8071V45.3861C169.78 45.847 169.352 46.4822 168.643 47.2926C167.934 48.1034 166.966 48.8358 165.742 49.4894C164.516 50.1427 163.075 50.4701 161.417 50.4701C159.318 50.4701 157.416 49.9729 155.712 48.9781C154.008 47.9833 152.654 46.5881 151.65 44.792C150.646 42.9962 150.145 40.8918 150.145 38.4787C150.145 36.0656 150.646 33.9612 151.65 32.165C152.654 30.3692 154.008 28.9693 155.712 27.9654C157.416 26.9615 159.318 26.4592 161.417 26.4592C163.057 26.4592 164.48 26.7542 165.687 27.3437C166.893 27.9335 167.86 28.6147 168.588 29.3881C169.315 30.1619 169.743 30.825 169.872 31.3777V27.1226H174.625V49.807L169.928 49.8071ZM154.897 38.4787C154.897 40.1184 155.256 41.5365 155.974 42.7338C156.693 43.9315 157.628 44.857 158.779 45.5106C159.93 46.1646 161.159 46.4913 162.467 46.4913C163.867 46.4913 165.12 46.1599 166.225 45.4968C167.331 44.8337 168.205 43.8988 168.85 42.6924C169.495 41.486 169.817 40.0811 169.817 38.4787C169.817 36.8763 169.495 35.4717 168.85 34.265C168.205 33.0589 167.331 32.1193 166.225 31.4468C165.12 30.7746 163.867 30.4382 162.467 30.4382C161.159 30.4382 159.93 30.7699 158.779 31.433C157.628 32.0961 156.693 33.0263 155.974 34.2236C155.256 35.4213 154.897 36.8393 154.897 38.4787Z" fill="black"/>
<path d="M183.3 49.8071H178.465V11.7878H183.3V49.8071Z" fill="black"/>
<path d="M188.191 13.335H214.578L194.076 45.5244H213.39V49.8071H185.621L206.206 17.6177H188.191V13.335Z" fill="black"/>
<path d="M235.44 49.8071V45.3861C235.292 45.847 234.864 46.4822 234.155 47.2926C233.446 48.1034 232.478 48.8358 231.254 49.4894C230.029 50.1427 228.587 50.4701 226.929 50.4701C224.829 50.4701 222.927 49.9729 221.224 48.9781C219.52 47.9833 218.166 46.5881 217.162 44.792C216.158 42.9962 215.656 40.8918 215.656 38.4787C215.656 36.0656 216.158 33.9612 217.162 32.165C218.166 30.3692 219.52 28.9693 221.224 27.9654C222.927 26.9615 224.829 26.4592 226.929 26.4592C228.569 26.4592 229.992 26.7542 231.198 27.3437C232.405 27.9335 233.372 28.6147 234.1 29.3881C234.827 30.1619 235.255 30.825 235.384 31.3777V27.1226H240.137V49.807L235.44 49.8071ZM220.409 38.4787C220.409 40.1184 220.768 41.5365 221.486 42.7338C222.205 43.9315 223.139 44.857 224.291 45.5106C225.442 46.1646 226.671 46.4913 227.979 46.4913C229.379 46.4913 230.632 46.1599 231.737 45.4968C232.843 44.8337 233.717 43.8988 234.362 42.6924C235.007 41.486 235.329 40.0811 235.329 38.4787C235.329 36.8763 235.007 35.4717 234.362 34.265C233.717 33.0589 232.843 32.1193 231.737 31.4468C230.632 30.7746 229.379 30.4382 227.979 30.4382C226.671 30.4382 225.442 30.7699 224.291 31.433C223.139 32.0961 222.205 33.0263 221.486 34.2236C220.768 35.4213 220.409 36.8393 220.409 38.4787Z" fill="black"/>
<path d="M246.85 43.4797C247.716 43.4797 248.457 43.7879 249.074 44.4052C249.691 45.0222 250 45.7633 250 46.6296C250 47.4952 249.691 48.2411 249.074 48.8675C248.457 49.4936 247.716 49.8071 246.85 49.8071C246.279 49.8071 245.749 49.6594 245.261 49.3647C244.773 49.07 244.382 48.6878 244.087 48.2182C243.792 47.7486 243.645 47.2187 243.645 46.6296C243.645 45.7633 243.958 45.0222 244.584 44.4052C245.211 43.7879 245.966 43.4797 246.85 43.4797ZM249.309 13.031V35.7154H244.501V13.031H249.309Z" fill="black"/>
<path d="M131.734 65.1518V64.7602H132.246V61.8901H131.734V61.4985H133.159C133.64 61.4985 134.011 61.6206 134.273 61.8637C134.536 62.1078 134.668 62.4819 134.668 62.9858V63.6645C134.668 64.1723 134.536 64.5473 134.273 64.7895C134.011 65.0307 133.64 65.1518 133.159 65.1518H131.734ZM132.685 64.7553H133.159C133.515 64.7553 133.782 64.6684 133.963 64.4946C134.144 64.3208 134.234 64.0503 134.234 63.685V62.9702C134.234 62.5981 134.144 62.3266 133.963 62.1557C133.782 61.9858 133.515 61.9008 133.159 61.9008H132.685V64.7553Z" fill="black"/>
<path d="M135.891 65.1518V61.4985H136.328V65.1518H135.891Z" fill="black"/>
<path d="M138.956 65.2251C138.685 65.2251 138.445 65.1685 138.238 65.0552C138.031 64.9419 137.869 64.7759 137.753 64.5572C137.636 64.3375 137.578 64.066 137.578 63.7427V62.9077C137.578 62.4243 137.706 62.0561 137.964 61.8042C138.222 61.5513 138.567 61.4253 139.003 61.4253C139.434 61.4253 139.763 61.5435 139.989 61.7808C140.215 62.0171 140.328 62.3335 140.328 62.73V62.7564H139.896V62.7203C139.896 62.5455 139.863 62.3912 139.801 62.2555C139.738 62.1198 139.641 62.0123 139.509 61.9342C139.377 61.8561 139.208 61.817 139.003 61.817C138.692 61.817 138.451 61.9117 138.277 62.1012C138.104 62.2916 138.017 62.5563 138.017 62.8971V63.7535C138.017 64.0943 138.104 64.3599 138.277 64.5494C138.451 64.7389 138.694 64.8336 139.008 64.8336C139.314 64.8336 139.539 64.7467 139.684 64.5729C139.828 64.3991 139.9 64.1676 139.9 63.8786V63.7897H138.794V63.4137H140.328V65.152H139.932V64.7555H139.859C139.82 64.8317 139.767 64.9069 139.696 64.9801C139.627 65.0524 139.533 65.1119 139.415 65.1569C139.297 65.2028 139.144 65.2251 138.956 65.2251Z" fill="black"/>
<path d="M141.652 65.1518V61.4985H142.09V65.1518H141.652Z" fill="black"/>
<path d="M144.343 65.1518V61.895H143.168V61.4985H145.955V61.895H144.781V65.1518H144.343Z" fill="black"/>
<path d="M146.75 65.1518L147.877 61.4985H148.65L149.777 65.1518H149.322L149.041 64.228H147.486L147.204 65.1518H146.75ZM147.595 63.8315H148.926L148.3 61.7651H148.227L147.595 63.8315Z" fill="black"/>
<path d="M150.848 65.1518V61.4985H151.285V64.7553H153.133V65.1518H150.848Z" fill="black"/>
<path d="M157.156 65.225C156.892 65.225 156.655 65.1781 156.446 65.0844C156.237 64.9897 156.073 64.8481 155.953 64.6586C155.833 64.4691 155.773 64.2318 155.773 63.9457V63.8363H156.206V63.9457C156.206 64.2484 156.295 64.474 156.473 64.6225C156.649 64.77 156.878 64.8442 157.156 64.8442C157.441 64.8442 157.659 64.7797 157.809 64.6508C157.958 64.5219 158.033 64.3608 158.033 64.1654C158.033 64.0297 157.999 63.9222 157.931 63.8422C157.863 63.7621 157.769 63.6967 157.646 63.6459C157.524 63.5961 157.382 63.5512 157.219 63.5131L156.947 63.4447C156.735 63.389 156.547 63.3217 156.384 63.2416C156.22 63.1615 156.092 63.0561 156 62.9262C155.908 62.7953 155.861 62.6274 155.861 62.4223C155.861 62.2172 155.913 62.0395 156.016 61.8901C156.118 61.7407 156.263 61.6255 156.449 61.5454C156.635 61.4653 156.85 61.4253 157.094 61.4253C157.341 61.4253 157.562 61.4683 157.759 61.5532C157.955 61.6381 158.11 61.7641 158.223 61.9292C158.336 62.0942 158.392 62.3022 158.392 62.5532V62.772H157.96V62.5532C157.96 62.3755 157.922 62.2329 157.847 62.1245C157.772 62.0171 157.67 61.937 157.54 61.8843C157.409 61.8325 157.261 61.8062 157.094 61.8062C156.853 61.8062 156.66 61.8599 156.513 61.9654C156.368 62.0718 156.295 62.2222 156.295 62.4175C156.295 62.5454 156.326 62.6499 156.388 62.73C156.451 62.8101 156.54 62.8755 156.655 62.9263C156.769 62.9761 156.907 63.021 157.067 63.0591L157.339 63.1265C157.551 63.1724 157.741 63.2339 157.91 63.312C158.079 63.3901 158.214 63.4966 158.314 63.6304C158.415 63.7642 158.466 63.939 158.466 64.1548C158.466 64.3706 158.412 64.5591 158.304 64.7183C158.196 64.8785 158.044 65.0035 157.847 65.0923C157.651 65.1802 157.42 65.225 157.156 65.225Z" fill="black"/>
<path d="M160.984 65.2251C160.55 65.2251 160.202 65.0991 159.943 64.8462C159.684 64.5942 159.555 64.2261 159.555 63.7427V62.9077C159.555 62.4243 159.684 62.0561 159.943 61.8042C160.202 61.5513 160.55 61.4253 160.984 61.4253C161.423 61.4253 161.771 61.5513 162.031 61.8042C162.29 62.0562 162.42 62.4243 162.42 62.9077V63.7427C162.42 64.2261 162.29 64.5943 162.031 64.8462C161.771 65.0991 161.423 65.2251 160.984 65.2251ZM160.984 64.8335C161.301 64.8335 161.546 64.7388 161.721 64.5493C161.894 64.3598 161.981 64.0962 161.981 63.7583V62.8921C161.981 62.5542 161.894 62.2915 161.721 62.1011C161.546 61.9116 161.301 61.8169 160.984 61.8169C160.671 61.8169 160.428 61.9116 160.254 62.1011C160.08 62.2915 159.993 62.5542 159.993 62.8921V63.7583C159.993 64.0962 160.08 64.3599 160.254 64.5493C160.428 64.7387 160.671 64.8335 160.984 64.8335Z" fill="black"/>
<path d="M163.676 65.1518V61.4985H164.113V64.7553H165.961V65.1518H163.676Z" fill="black"/>
<path d="M168.366 65.225C168.095 65.225 167.857 65.1762 167.656 65.0785C167.454 64.9808 167.298 64.8363 167.187 64.643C167.075 64.4497 167.02 64.2123 167.02 63.9301V61.4985H167.452V63.936C167.452 64.2348 167.532 64.4594 167.692 64.6089C167.852 64.7584 168.077 64.8335 168.366 64.8335C168.654 64.8335 168.879 64.7583 169.039 64.6089C169.199 64.4595 169.279 64.2349 169.279 63.936V61.4985H169.718V63.9301C169.718 64.2123 169.662 64.4496 169.551 64.643C169.439 64.8364 169.282 64.9809 169.078 65.0785C168.875 65.1762 168.638 65.225 168.366 65.225Z" fill="black"/>
<path d="M171.94 65.1518V61.895H170.766V61.4985H173.553V61.895H172.379V65.1518H171.94Z" fill="black"/>
<path d="M174.637 65.1518V61.4985H175.074V65.1518H174.637Z" fill="black"/>
<path d="M177.754 65.2251C177.319 65.2251 176.972 65.0991 176.713 64.8462C176.453 64.5942 176.324 64.2261 176.324 63.7427V62.9077C176.324 62.4243 176.453 62.0561 176.713 61.8042C176.972 61.5513 177.319 61.4253 177.754 61.4253C178.192 61.4253 178.541 61.5513 178.801 61.8042C179.06 62.0562 179.19 62.4243 179.19 62.9077V63.7427C179.19 64.2261 179.06 64.5943 178.801 64.8462C178.541 65.0991 178.192 65.2251 177.754 65.2251ZM177.754 64.8335C178.07 64.8335 178.315 64.7388 178.49 64.5493C178.664 64.3598 178.751 64.0962 178.751 63.7583V62.8921C178.751 62.5542 178.664 62.2915 178.49 62.1011C178.315 61.9116 178.07 61.8169 177.754 61.8169C177.44 61.8169 177.197 61.9116 177.023 62.1011C176.85 62.2915 176.763 62.5542 176.763 62.8921V63.7583C176.763 64.0962 176.85 64.3599 177.023 64.5493C177.197 64.7387 177.44 64.8335 177.754 64.8335Z" fill="black"/>
<path d="M180.441 65.1518V61.4985H181.292L182.565 64.8755H182.633V61.4985H183.066V65.1518H182.216L180.947 61.77H180.874V65.1518H180.441Z" fill="black"/>
<path d="M185.645 65.225C185.38 65.225 185.144 65.1781 184.935 65.0844C184.726 64.9897 184.562 64.8481 184.441 64.6586C184.321 64.4691 184.262 64.2318 184.262 63.9457V63.8363H184.694V63.9457C184.694 64.2484 184.783 64.474 184.961 64.6225C185.138 64.77 185.366 64.8442 185.645 64.8442C185.93 64.8442 186.147 64.7797 186.297 64.6508C186.446 64.5219 186.521 64.3608 186.521 64.1654C186.521 64.0297 186.487 63.9222 186.419 63.8422C186.352 63.7621 186.257 63.6967 186.135 63.6459C186.013 63.5961 185.87 63.5512 185.707 63.5131L185.436 63.4447C185.224 63.389 185.035 63.3217 184.872 63.2416C184.708 63.1615 184.58 63.0561 184.488 62.9262C184.396 62.7953 184.35 62.6274 184.35 62.4223C184.35 62.2172 184.401 62.0395 184.504 61.8901C184.606 61.7407 184.751 61.6255 184.937 61.5454C185.123 61.4653 185.338 61.4253 185.582 61.4253C185.829 61.4253 186.051 61.4683 186.247 61.5532C186.443 61.6381 186.599 61.7641 186.712 61.9292C186.824 62.0942 186.881 62.3022 186.881 62.5532V62.772H186.448V62.5532C186.448 62.3755 186.41 62.2329 186.336 62.1245C186.261 62.0171 186.158 61.937 186.028 61.8843C185.897 61.8325 185.749 61.8062 185.582 61.8062C185.342 61.8062 185.148 61.8599 185.002 61.9654C184.856 62.0718 184.783 62.2222 184.783 62.4175C184.783 62.5454 184.814 62.6499 184.877 62.73C184.939 62.8101 185.028 62.8755 185.143 62.9263C185.258 62.9761 185.395 63.021 185.555 63.0591L185.827 63.1265C186.039 63.1724 186.229 63.2339 186.398 63.312C186.567 63.3901 186.702 63.4966 186.803 63.6304C186.903 63.7642 186.954 63.939 186.954 64.1548C186.954 64.3706 186.9 64.5591 186.792 64.7183C186.684 64.8785 186.532 65.0035 186.336 65.0923C186.139 65.1802 185.908 65.225 185.645 65.225Z" fill="black"/>
<path d="M190.016 65.1518V61.4985H192.223V61.895H190.453V63.1216H192.082V63.5181H190.453V65.1519L190.016 65.1518Z" fill="black"/>
<path d="M194.68 65.2251C194.245 65.2251 193.898 65.0991 193.639 64.8462C193.379 64.5942 193.25 64.2261 193.25 63.7427V62.9077C193.25 62.4243 193.379 62.0561 193.639 61.8042C193.898 61.5513 194.245 61.4253 194.68 61.4253C195.118 61.4253 195.467 61.5513 195.727 61.8042C195.985 62.0562 196.115 62.4243 196.115 62.9077V63.7427C196.115 64.2261 195.985 64.5943 195.727 64.8462C195.467 65.0991 195.118 65.2251 194.68 65.2251ZM194.68 64.8335C194.996 64.8335 195.241 64.7388 195.416 64.5493C195.59 64.3598 195.677 64.0962 195.677 63.7583V62.8921C195.677 62.5542 195.59 62.2915 195.416 62.1011C195.241 61.9116 194.996 61.8169 194.68 61.8169C194.366 61.8169 194.123 61.9116 193.949 62.1011C193.775 62.2915 193.689 62.5542 193.689 62.8921V63.7583C193.689 64.0962 193.775 64.3599 193.949 64.5493C194.123 64.7387 194.366 64.8335 194.68 64.8335Z" fill="black"/>
<path d="M197.367 65.1518V61.4985H198.844C199.07 61.4985 199.27 61.5376 199.441 61.6157C199.613 61.6938 199.748 61.8052 199.846 61.9497C199.943 62.0942 199.992 62.2671 199.992 62.4692V62.5268C199.992 62.767 199.935 62.9565 199.819 63.0952C199.705 63.2348 199.569 63.3286 199.412 63.3774V63.4506C199.538 63.4535 199.642 63.4945 199.723 63.5727C199.805 63.6518 199.846 63.769 199.846 63.9252V65.1518H199.412V63.978C199.412 63.8735 199.384 63.7934 199.326 63.7378C199.27 63.6821 199.183 63.6538 199.068 63.6538H197.805V65.1518H197.367ZM197.805 63.2572H198.802C199.042 63.2572 199.228 63.1986 199.357 63.0824C199.488 62.9662 199.554 62.8031 199.554 62.5941V62.558C199.554 62.349 199.489 62.1869 199.36 62.0697C199.231 61.9535 199.046 61.8949 198.802 61.8949H197.805V63.2572Z" fill="black"/>
<path d="M203.047 65.1518V61.4985H204.523C204.75 61.4985 204.949 61.5376 205.121 61.6157C205.293 61.6938 205.428 61.8052 205.525 61.9497C205.623 62.0942 205.672 62.2671 205.672 62.4692V62.5268C205.672 62.767 205.614 62.9565 205.499 63.0952C205.385 63.2348 205.249 63.3286 205.092 63.3774V63.4506C205.218 63.4535 205.321 63.4945 205.402 63.5727C205.484 63.6518 205.525 63.769 205.525 63.9252V65.1518H205.092V63.978C205.092 63.8735 205.063 63.7934 205.006 63.7378C204.949 63.6821 204.862 63.6538 204.748 63.6538H203.484V65.1518H203.047ZM203.484 63.2572H204.481C204.722 63.2572 204.907 63.1986 205.037 63.0824C205.168 62.9662 205.233 62.8031 205.233 62.5941V62.558C205.233 62.349 205.169 62.1869 205.04 62.0697C204.911 61.9535 204.726 61.8949 204.481 61.8949H203.484V63.2572Z" fill="black"/>
<path d="M206.859 65.1518V61.4985H209.108V61.895H207.297V63.1167H208.962V63.5132H207.297V64.7554H209.135V65.1519L206.859 65.1518Z" fill="black"/>
<path d="M210.035 65.1518L211.162 61.4985H211.935L213.062 65.1518H212.608L212.326 64.228H210.771L210.489 65.1518H210.035ZM210.88 63.8315H212.211L211.585 61.7651H211.512L210.88 63.8315Z" fill="black"/>
<path d="M214.133 65.1518V61.4985H214.57V64.7553H216.418V65.1518H214.133Z" fill="black"/>
<path d="M219.23 65.1518V61.4985H220.629C220.848 61.4985 221.044 61.5415 221.216 61.6264C221.388 61.7113 221.524 61.8325 221.626 61.9887C221.727 62.1459 221.777 62.3354 221.777 62.558V62.6254C221.777 62.8451 221.726 63.0336 221.623 63.1918C221.521 63.35 221.382 63.4711 221.208 63.5551C221.034 63.6381 220.841 63.6801 220.629 63.6801H219.668V65.1518H219.23ZM219.668 63.2836H220.582C220.814 63.2836 220.999 63.225 221.135 63.1088C221.27 62.9916 221.339 62.8276 221.339 62.6156V62.5629C221.339 62.351 221.271 62.1869 221.138 62.0697C221.004 61.9535 220.818 61.8949 220.582 61.8949H219.668L219.668 63.2836Z" fill="black"/>
<path d="M222.891 65.1518V61.4985H224.367C224.594 61.4985 224.793 61.5376 224.965 61.6157C225.137 61.6938 225.272 61.8052 225.369 61.9497C225.467 62.0942 225.516 62.2671 225.516 62.4692V62.5268C225.516 62.767 225.458 62.9565 225.343 63.0952C225.229 63.2348 225.093 63.3286 224.936 63.3774V63.4506C225.062 63.4535 225.165 63.4945 225.246 63.5727C225.328 63.6518 225.369 63.769 225.369 63.9252V65.1518H224.936V63.978C224.936 63.8735 224.907 63.7934 224.85 63.7378C224.793 63.6821 224.706 63.6538 224.592 63.6538H223.328V65.1518H222.891ZM223.328 63.2572H224.325C224.565 63.2572 224.751 63.1986 224.881 63.0824C225.012 62.9662 225.077 62.8031 225.077 62.5941V62.558C225.077 62.349 225.013 62.1869 224.884 62.0697C224.755 61.9535 224.569 61.8949 224.325 61.8949H223.328V63.2572Z" fill="black"/>
<path d="M228.027 65.2251C227.593 65.2251 227.245 65.0991 226.986 64.8462C226.727 64.5942 226.598 64.2261 226.598 63.7427V62.9077C226.598 62.4243 226.727 62.0561 226.986 61.8042C227.245 61.5513 227.593 61.4253 228.027 61.4253C228.466 61.4253 228.814 61.5513 229.074 61.8042C229.333 62.0562 229.463 62.4243 229.463 62.9077V63.7427C229.463 64.2261 229.333 64.5943 229.074 64.8462C228.814 65.0991 228.466 65.2251 228.027 65.2251ZM228.027 64.8335C228.344 64.8335 228.589 64.7388 228.764 64.5493C228.937 64.3598 229.024 64.0962 229.024 63.7583V62.8921C229.024 62.5542 228.937 62.2915 228.764 62.1011C228.589 61.9116 228.344 61.8169 228.027 61.8169C227.714 61.8169 227.471 61.9116 227.297 62.1011C227.123 62.2915 227.036 62.5542 227.036 62.8921V63.7583C227.036 64.0962 227.123 64.3599 227.297 64.5493C227.471 64.7387 227.714 64.8335 228.027 64.8335Z" fill="black"/>
<path d="M230.543 65.1518V64.7602H231.055V61.8901H230.543V61.4985H232.375C232.587 61.4985 232.776 61.5366 232.941 61.6137C233.106 61.6899 233.235 61.7973 233.327 61.934C233.42 62.0717 233.466 62.2328 233.466 62.4174V62.4584C233.466 62.6293 233.433 62.7689 233.366 62.8793C233.301 62.9887 233.223 63.0736 233.132 63.1342C233.041 63.1957 232.952 63.2397 232.865 63.268V63.3412C232.952 63.3617 233.043 63.4027 233.137 63.4633C233.23 63.5248 233.31 63.6108 233.374 63.7221C233.438 63.8334 233.471 63.9741 233.471 64.145V64.1968C233.471 64.395 233.423 64.5669 233.327 64.7105C233.231 64.855 233.101 64.9654 232.936 65.0396C232.77 65.1148 232.582 65.1519 232.37 65.1519L230.543 65.1518ZM231.493 63.1108H232.339C232.547 63.1108 232.714 63.0581 232.84 62.9516C232.965 62.8461 233.027 62.7055 233.027 62.5317V62.4799C233.027 62.3022 232.966 62.1606 232.842 62.0541C232.719 61.9486 232.551 61.8949 232.339 61.8949H231.493L231.493 63.1108ZM231.493 64.7553H232.323C232.553 64.7553 232.729 64.7016 232.85 64.5932C232.972 64.4858 233.032 64.3393 233.032 64.1547V64.1078C233.032 63.9232 232.972 63.7777 232.85 63.6693C232.729 63.5619 232.553 63.5082 232.323 63.5082H231.493V64.7553Z" fill="black"/>
<path d="M234.688 65.1518V61.4985H235.125V64.7553H236.973V65.1518H234.688Z" fill="black"/>
<path d="M238.059 65.1518V61.4985H240.308V61.895H238.496V63.1167H240.161V63.5132H238.496V64.7554H240.334V65.1519L238.059 65.1518Z" fill="black"/>
<path d="M241.52 65.1518V61.4985H242.355L243.325 64.8755H243.393L244.363 61.4985H245.198V65.1518H244.775V61.7856H244.703L243.737 65.1518H242.981L242.015 61.7856H241.942V65.1518H241.52Z" fill="black"/>
<path d="M247.774 65.225C247.509 65.225 247.273 65.1781 247.064 65.0844C246.855 64.9897 246.691 64.8481 246.57 64.6586C246.45 64.4691 246.391 64.2318 246.391 63.9457V63.8363H246.823V63.9457C246.823 64.2484 246.912 64.474 247.09 64.6225C247.267 64.77 247.495 64.8442 247.773 64.8442C248.059 64.8442 248.276 64.7797 248.426 64.6508C248.575 64.5219 248.65 64.3608 248.65 64.1654C248.65 64.0297 248.616 63.9222 248.548 63.8422C248.48 63.7621 248.386 63.6967 248.264 63.6459C248.142 63.5961 247.999 63.5512 247.836 63.5131L247.564 63.4447C247.353 63.389 247.164 63.3217 247.001 63.2416C246.837 63.1615 246.709 63.0561 246.617 62.9262C246.525 62.7953 246.478 62.6274 246.478 62.4223C246.478 62.2172 246.53 62.0395 246.633 61.8901C246.735 61.7407 246.88 61.6255 247.066 61.5454C247.252 61.4653 247.467 61.4253 247.711 61.4253C247.958 61.4253 248.18 61.4683 248.376 61.5532C248.572 61.6381 248.727 61.7641 248.841 61.9292C248.953 62.0942 249.01 62.3022 249.01 62.5532V62.772H248.577V62.5532C248.577 62.3755 248.539 62.2329 248.465 62.1245C248.389 62.0171 248.287 61.937 248.157 61.8843C248.026 61.8325 247.878 61.8062 247.711 61.8062C247.471 61.8062 247.277 61.8599 247.131 61.9654C246.985 62.0718 246.912 62.2222 246.912 62.4175C246.912 62.5454 246.943 62.6499 247.006 62.73C247.068 62.8101 247.157 62.8755 247.272 62.9263C247.387 62.9761 247.524 63.021 247.684 63.0591L247.956 63.1265C248.168 63.1724 248.358 63.2339 248.527 63.312C248.696 63.3901 248.831 63.4966 248.931 63.6304C249.032 63.7642 249.083 63.939 249.083 64.1548C249.083 64.3706 249.029 64.5591 248.921 64.7183C248.813 64.8785 248.661 65.0035 248.465 65.0923C248.268 65.1802 248.037 65.225 247.774 65.225Z" fill="black"/>
</svg>
