<svg width="40" height="40" viewBox="0 0 40 40" fill="none" xmlns="http://www.w3.org/2000/svg">
<g filter="url(#filter0_d_3210_1333)">
<circle cx="20" cy="20" r="12" fill="white"/>
</g>
<path d="M17.8977 20.0029L22.1437 15.6394C22.1787 15.6042 22.2063 15.5625 22.225 15.5166C22.2437 15.4706 22.2532 15.4215 22.2528 15.3719C22.2524 15.3223 22.2421 15.2733 22.2226 15.2277C22.2032 15.1821 22.1748 15.1408 22.1393 15.1062C22.1038 15.0717 22.0617 15.0445 22.0156 15.0262C21.9695 15.008 21.9202 14.9991 21.8706 15.0001C21.8211 15.001 21.7722 15.0118 21.7268 15.0317C21.6814 15.0517 21.6404 15.0805 21.6062 15.1164L17.1062 19.7414C17.0381 19.8114 17 19.9052 17 20.0029C17 20.1006 17.0381 20.1944 17.1062 20.2644L21.6062 24.8894C21.6404 24.9253 21.6814 24.9541 21.7268 24.974C21.7722 24.994 21.8211 25.0048 21.8706 25.0057C21.9202 25.0066 21.9695 24.9977 22.0156 24.9795C22.0617 24.9613 22.1038 24.9341 22.1393 24.8995C22.1748 24.865 22.2032 24.8237 22.2226 24.7781C22.2421 24.7325 22.2524 24.6835 22.2528 24.6339C22.2532 24.5843 22.2437 24.5351 22.225 24.4892C22.2063 24.4433 22.1787 24.4015 22.1437 24.3664L17.8977 20.0029Z" fill="black"/>
<defs>
<filter id="filter0_d_3210_1333" x="0" y="0" width="40" height="40" filterUnits="userSpaceOnUse" color-interpolation-filters="sRGB">
<feFlood flood-opacity="0" result="BackgroundImageFix"/>
<feColorMatrix in="SourceAlpha" type="matrix" values="0 0 0 0 0 0 0 0 0 0 0 0 0 0 0 0 0 0 127 0" result="hardAlpha"/>
<feMorphology radius="2" operator="dilate" in="SourceAlpha" result="effect1_dropShadow_3210_1333"/>
<feOffset/>
<feGaussianBlur stdDeviation="3"/>
<feComposite in2="hardAlpha" operator="out"/>
<feColorMatrix type="matrix" values="0 0 0 0 0 0 0 0 0 0 0 0 0 0 0 0 0 0 0.1 0"/>
<feBlend mode="normal" in2="BackgroundImageFix" result="effect1_dropShadow_3210_1333"/>
<feBlend mode="normal" in="SourceGraphic" in2="effect1_dropShadow_3210_1333" result="shape"/>
</filter>
</defs>
</svg>
