<svg width="32" height="32" viewBox="0 0 32 32" fill="none" xmlns="http://www.w3.org/2000/svg">
<path d="M16.3459 6.33001C16.2529 6.24099 16.1291 6.19131 16.0003 6.19131C15.8715 6.19131 15.7477 6.24099 15.6547 6.33001L4.14844 17.3219C4.09957 17.3686 4.0607 17.4248 4.03416 17.487C4.00763 17.5492 3.99399 17.6161 3.99406 17.6838L3.99219 28C3.99219 28.5304 4.2029 29.0391 4.57797 29.4142C4.95305 29.7893 5.46175 30 5.99219 30H11.9984C12.2637 30 12.518 29.8946 12.7055 29.7071C12.8931 29.5196 12.9984 29.2652 12.9984 29V20.5C12.9984 20.3674 13.0511 20.2402 13.1449 20.1464C13.2387 20.0527 13.3658 20 13.4984 20H18.4984C18.631 20 18.7582 20.0527 18.852 20.1464C18.9458 20.2402 18.9984 20.3674 18.9984 20.5V29C18.9984 29.2652 19.1038 29.5196 19.2913 29.7071C19.4789 29.8946 19.7332 30 19.9984 30H26.0022C26.5326 30 27.0413 29.7893 27.4164 29.4142C27.7915 29.0391 28.0022 28.5304 28.0022 28V17.6838C28.0023 17.6161 27.9886 17.5492 27.9621 17.487C27.9355 17.4248 27.8967 17.3686 27.8478 17.3219L16.3459 6.33001Z" fill="white"/>
<path d="M30.6819 15.2594L26.0069 10.7869V4C26.0069 3.73478 25.9015 3.48043 25.714 3.29289C25.5265 3.10536 25.2721 3 25.0069 3H22.0069C21.7417 3 21.4873 3.10536 21.2998 3.29289C21.1122 3.48043 21.0069 3.73478 21.0069 4V6L17.3869 2.53875C17.0481 2.19625 16.5444 2 16 2C15.4575 2 14.955 2.19625 14.6163 2.53938L1.32252 15.2581C0.933774 15.6331 0.885024 16.25 1.23877 16.6563C1.32761 16.7588 1.43637 16.8422 1.55846 16.9014C1.68055 16.9605 1.8134 16.9943 1.94892 17.0004C2.08445 17.0066 2.21982 16.9852 2.3468 16.9374C2.47378 16.8896 2.5897 16.8165 2.68752 16.7225L15.6563 4.33C15.7493 4.24099 15.8731 4.19131 16.0019 4.19131C16.1307 4.19131 16.2545 4.24099 16.3475 4.33L29.3175 16.7225C29.5086 16.9057 29.7645 17.0057 30.0291 17.0006C30.2938 16.9954 30.5456 16.8855 30.7294 16.695C31.1131 16.2975 31.0813 15.6413 30.6819 15.2594Z" fill="white"/>
</svg>
