<svg width="213" height="93" viewBox="0 0 213 93" fill="none" xmlns="http://www.w3.org/2000/svg">
<path d="M41.8261 11.3743C37.9184 4.43449 30.8621 0.183521 22.9466 0.00613441C22.5753 -0.0020448 22.2008 -0.0020448 21.8264 0.00613441C13.9125 0.183521 6.85602 4.43449 2.9484 11.3743C-1.01673 18.4192 -0.980607 26.7947 3.04527 33.7789L20.4925 64.0496L13.3802 76.3885C11.5093 79.6358 11.4814 83.537 13.308 86.8237C15.0984 90.0448 18.3474 92.0422 22.0004 92.1654C22.1286 92.1703 22.2583 92.1719 22.3881 92.1719C22.5178 92.1719 22.646 92.1703 22.7757 92.1654C26.4288 92.0422 29.6778 90.0448 31.4666 86.8237C33.2931 83.537 33.2651 79.6359 31.3943 76.3885L24.2837 64.0496L41.7294 33.7789C45.7553 26.7947 45.7913 18.4176 41.8261 11.3743ZM28.5477 78.0294C29.8387 80.2682 29.8552 82.9587 28.5953 85.2287C27.37 87.433 25.1542 88.798 22.6657 88.8818C22.48 88.8883 22.2928 88.8883 22.1105 88.8818C19.622 88.798 17.4046 87.433 16.1808 85.2287C14.9194 82.9587 14.9374 80.2682 16.2268 78.0294L22.3881 67.3396L28.5477 78.0294ZM38.8826 32.1395L22.3881 60.7611L5.8918 32.1395C2.45066 26.1688 2.42109 19.0089 5.81129 12.9856C9.14406 7.06581 15.1591 3.44234 21.9001 3.28957C22.0628 3.28625 22.2253 3.28463 22.388 3.28463C22.5506 3.28463 22.7132 3.28625 22.8742 3.28957C29.617 3.44234 35.6304 7.06581 38.9631 12.9856C42.3534 19.0089 42.3239 26.1688 38.8826 32.1395Z" fill="url(#paint0_linear_3119_1827)"/>
<path d="M29.5185 20.8847C29.0636 20.0552 28.3654 19.3949 27.421 18.9054C26.4765 18.4159 25.2709 18.1711 23.8024 18.1711H17.9023V36.5284H20.105V29.2371H23.8024C25.2873 29.2371 26.4979 28.9923 27.4342 28.5028C28.3688 28.0134 29.0636 27.3498 29.5186 26.5104C29.9736 25.6711 30.2003 24.7365 30.2003 23.705C30.2003 22.6554 29.9736 21.7158 29.5185 20.8847ZM27.0136 26.3659C26.3943 27.0393 25.3135 27.3761 23.776 27.3761H20.1049V20.0059H23.776C25.3135 20.0059 26.3943 20.3345 27.0136 20.9898C27.6344 21.6452 27.9449 22.5503 27.9449 23.705C27.9449 24.8055 27.6344 25.6924 27.0136 26.3659Z" fill="url(#paint1_linear_3119_1827)"/>
<path d="M26.4639 80.4111V80.9678H24.7524C23.6502 81.0779 22.7747 81.9533 22.6647 83.0539V84.7671H22.1078V83.0539C21.9978 81.9533 21.1223 81.0779 20.0202 80.9678H18.3086V80.4111H20.0202C21.1223 80.301 21.9978 79.4256 22.1078 78.325V76.6118H22.6647V78.325C22.7748 79.4256 23.6502 80.301 24.7524 80.4111H26.4639Z" fill="url(#paint2_linear_3119_1827)"/>
<path d="M56.0781 57.2372V23.0706H67.7436C70.4442 23.0706 72.681 23.5265 74.4549 24.4371C76.2281 25.3485 77.5376 26.5687 78.384 28.0979C79.2298 29.6278 79.6532 31.3682 79.6532 33.3206C79.6532 35.1754 79.2383 36.876 78.4085 38.4211C77.5787 39.967 76.2853 41.2117 74.5282 42.155C72.771 43.0993 70.509 43.5706 67.7436 43.5706H60.9591V57.2372H56.0781ZM60.9591 39.5194H67.5484C70.0866 39.5194 71.9085 38.9504 73.015 37.8111C74.1209 36.6724 74.6747 35.1593 74.6747 33.2718C74.6747 31.3195 74.121 29.8064 73.015 28.7325C71.9085 27.6588 70.0866 27.1218 67.5484 27.1218H60.9591V39.5194Z" fill="#191919"/>
<path d="M84.0456 28.0003C83.1014 28.0003 82.3289 27.7074 81.7272 27.1217C81.1246 26.536 80.8242 25.7879 80.8242 24.8766C80.8242 23.9979 81.1247 23.2742 81.7272 22.7045C82.3289 22.1355 83.1015 21.8503 84.0456 21.8503C84.9562 21.8503 85.7212 22.1355 86.3397 22.7045C86.9573 23.2742 87.267 23.9979 87.267 24.8766C87.267 25.7879 86.9573 26.536 86.3397 27.1217C85.7212 27.7075 84.9562 28.0003 84.0456 28.0003ZM81.6052 57.2372V32.6372H86.4861V57.2372H81.6052Z" fill="#191919"/>
<path d="M90.0469 57.2371V32.6371H94.4398L94.7325 36.8346C95.5136 35.3383 96.6118 34.167 98.0273 33.3204C99.4427 32.4746 101.094 32.0513 102.981 32.0513C104.966 32.0513 106.658 32.4418 108.058 33.2228C109.456 34.0038 110.539 35.1836 111.303 36.7615C112.068 38.3402 112.45 40.317 112.45 42.6919V57.2372H107.57V43.18C107.57 40.9028 107.065 39.1699 106.056 37.9818C105.047 36.7944 103.583 36.2003 101.664 36.2003C100.395 36.2003 99.2551 36.5099 98.247 37.1277C97.2379 37.7461 96.4325 38.6407 95.8308 39.8121C95.2282 40.9836 94.9278 42.4159 94.9278 44.1074V57.2372L90.0469 57.2371Z" fill="#191919"/>
<path d="M123.533 57.2372V27.0729H113.43V23.0706H138.567V27.0729H128.414V57.2372H123.533Z" fill="#191919"/>
<path d="M146.375 57.8227C144.488 57.8227 142.828 57.4322 141.397 56.6514C139.964 55.8703 138.875 54.6989 138.126 53.1369C137.378 51.5751 137.004 49.6066 137.004 47.2311V32.637H141.885V46.6941C141.885 49.037 142.381 50.7865 143.373 51.9412C144.366 53.0966 145.822 53.6739 147.742 53.6739C149.011 53.6739 150.15 53.365 151.159 52.7465C152.167 52.1287 152.972 51.2418 153.575 50.0864C154.177 48.9317 154.478 47.5079 154.478 45.8155V32.637H159.359V57.237H154.966L154.673 53.0394C153.924 54.5364 152.826 55.7079 151.378 56.5536C149.93 57.3994 148.262 57.8227 146.375 57.8227Z" fill="#191919"/>
<path d="M173.462 57.8229C171.151 57.8229 169.101 57.2617 167.312 56.139C165.522 55.0164 164.14 53.4789 163.164 51.5265C162.187 49.5741 161.699 47.3776 161.699 44.9371C161.699 42.4318 162.187 40.2109 163.164 38.2747C164.14 36.339 165.531 34.8175 167.337 33.7109C169.143 32.6051 171.2 32.0513 173.511 32.0513C175.496 32.0513 177.212 32.4342 178.661 33.1984C180.108 33.9633 181.239 35.0287 182.053 36.3954V22.0942H186.934V57.2371H182.541L182.102 53.3812C181.581 54.1622 180.922 54.8866 180.125 55.5532C179.327 56.2205 178.384 56.7658 177.294 57.1882C176.203 57.6108 174.927 57.8229 173.462 57.8229ZM174.341 53.5765C175.87 53.5765 177.212 53.2105 178.368 52.4783C179.522 51.7462 180.418 50.738 181.052 49.4522C181.687 48.1671 182.004 46.6624 182.004 44.9372C182.004 43.2121 181.687 41.6998 181.052 40.3979C180.418 39.0969 179.522 38.0879 178.368 37.3718C177.212 36.6564 175.87 36.298 174.341 36.298C172.844 36.298 171.51 36.6564 170.339 37.3718C169.167 38.0879 168.264 39.0969 167.63 40.3979C166.995 41.6999 166.678 43.1968 166.678 44.8884C166.678 46.6456 166.995 48.1671 167.63 49.4522C168.264 50.738 169.167 51.7462 170.339 52.4783C171.51 53.2105 172.844 53.5765 174.341 53.5765Z" fill="#191919"/>
<path d="M211.608 37.9074C210.683 36.1503 209.356 34.7356 207.631 33.6632C205.906 32.5881 203.839 32.0505 201.432 32.0505C199.025 32.0505 196.902 32.5961 195.062 33.6872C193.225 34.7784 191.81 36.2893 190.815 38.2256C189.823 40.1618 189.328 42.4162 189.328 44.9863C189.328 47.5564 189.839 49.8027 190.866 51.723C191.89 53.6431 193.305 55.1381 195.113 56.2132C196.918 57.2856 198.993 57.8231 201.336 57.8231C203.288 57.8231 204.994 57.4808 206.46 56.7989C207.923 56.1142 209.161 55.1809 210.169 53.9908C211.177 52.8034 211.894 51.4609 212.317 49.9633H207.436C206.979 51.1373 206.24 52.0626 205.216 52.7473C204.189 53.4292 202.898 53.7715 201.336 53.7715C200.001 53.7715 198.787 53.4479 197.699 52.7954C196.608 52.1456 195.738 51.2015 195.086 49.9633C194.519 48.8855 194.198 47.5831 194.126 46.0587H212.902C212.966 45.6362 213.001 45.2297 213.001 44.8392V43.7668C213.001 41.6194 212.536 39.6671 211.608 37.9074ZM194.182 42.6436C194.31 41.483 194.613 40.4828 195.086 39.6403C195.738 38.4876 196.616 37.6078 197.723 37.0061C198.83 36.4043 200.049 36.1022 201.384 36.1022C203.269 36.1022 204.85 36.6879 206.117 37.8593C207.388 39.0306 208.07 40.6272 208.169 42.6437L194.182 42.6436Z" fill="#191919"/>
<path d="M66.2923 69.4663H65.7779V67.5631H63.6863V69.4663H63.1719V65.3857H63.6863V67.1118H65.7779V65.3857H66.2923V69.4663Z" fill="black"/>
<path d="M71.4011 69.4663H69.1211V65.3857H71.4011V65.8373H69.6355V67.1118H71.2984V67.5574H69.6355V69.015H71.4011V69.4663Z" fill="black"/>
<path d="M74.0156 69.4663V65.3857H74.5301V69.0088H76.3131V69.4663H74.0156Z" fill="black"/>
<path d="M79.8029 65.3857C80.3361 65.3857 80.7248 65.4905 80.9689 65.7C81.2123 65.9096 81.3344 66.205 81.3344 66.5859C81.3344 66.7536 81.3069 66.9144 81.2517 67.069C81.196 67.2233 81.1059 67.3613 80.9801 67.4834C80.8544 67.6051 80.6866 67.7015 80.4769 67.7719C80.2672 67.8422 80.01 67.8776 79.7053 67.8776H79.2371V69.4663H78.7227V65.3857H79.8029ZM79.7572 65.8257H79.2371V67.4376H79.6483C79.9074 67.4376 80.1227 67.4098 80.2942 67.3547C80.4657 67.2993 80.5933 67.2108 80.6772 67.0887C80.7611 66.967 80.803 66.8071 80.803 66.6087C80.803 66.3459 80.7192 66.1497 80.5514 66.0201C80.3836 65.8905 80.1189 65.8257 79.7572 65.8257Z" fill="black"/>
<path d="M85.0409 69.4663H83.5664V69.1691L84.0464 69.0608V65.7973L83.5664 65.683V65.3857H85.0409V65.683L84.5609 65.7973V69.0608L85.0409 69.1691V69.4663Z" fill="black"/>
<path d="M90.7812 69.4664H90.1811L87.9981 66.0774H87.9756C87.9831 66.165 87.9894 66.2689 87.9956 66.3887C88.0012 66.5089 88.0069 66.6366 88.0125 66.7718C88.0181 66.907 88.0213 67.0453 88.0213 67.1861V69.4664H87.5469V65.3858H88.1408L90.3188 68.7635H90.3413C90.3375 68.7027 90.3325 68.6114 90.3269 68.4891C90.3212 68.3671 90.3156 68.2337 90.31 68.0891C90.3044 67.9442 90.3012 67.811 90.3012 67.6889V65.3857H90.7812V69.4664Z" fill="black"/>
<path d="M95.3761 67.312H96.7874V69.3119C96.5664 69.3845 96.3436 69.4376 96.119 69.4721C95.8937 69.5065 95.6389 69.5234 95.3529 69.5234C94.9298 69.5234 94.5738 69.4388 94.284 69.2693C93.9948 69.0997 93.7746 68.8575 93.6244 68.5433C93.4736 68.2291 93.3984 67.8568 93.3984 67.4262C93.3984 66.9996 93.4823 66.6298 93.65 66.3174C93.8178 66.0051 94.0587 65.7623 94.3729 65.5886C94.6871 65.4153 95.0669 65.3286 95.5132 65.3286C95.7416 65.3286 95.9575 65.3496 96.1616 65.3915C96.3656 65.4334 96.5552 65.4925 96.7304 65.5686L96.5358 66.0146C96.3913 65.9498 96.2285 65.8944 96.0477 65.8487C95.8662 65.803 95.679 65.7802 95.4844 65.7802C95.1608 65.7802 94.8824 65.8468 94.6501 65.9801C94.4173 66.1137 94.2402 66.303 94.1188 66.549C93.9968 66.7946 93.9354 67.087 93.9354 67.4262C93.9354 67.75 93.988 68.0367 94.0932 68.2864C94.1977 68.5358 94.3623 68.7305 94.587 68.8694C94.8123 69.0083 95.107 69.0778 95.4731 69.0778C95.6522 69.0778 95.8042 69.0684 95.93 69.049C96.0557 69.0302 96.1703 69.007 96.2729 68.9807V67.7691H95.3761V67.312Z" fill="black"/>
<path d="M103.742 67.3916L104.805 65.3857H105.36L103.999 67.8832V69.4663H103.485V67.906L102.125 65.3857H102.685L103.742 67.3916Z" fill="black"/>
<path d="M111.075 67.4205C111.075 67.7366 111.035 68.0236 110.955 68.2805C110.875 68.5377 110.756 68.7599 110.597 68.9464C110.44 69.1329 110.243 69.2762 110.009 69.3751C109.774 69.474 109.504 69.5234 109.194 69.5234C108.874 69.5234 108.597 69.4733 108.36 69.372C108.124 69.2712 107.928 69.1285 107.772 68.9432C107.615 68.7586 107.499 68.5364 107.423 68.2776C107.347 68.0186 107.309 67.731 107.309 67.4146C107.309 66.9956 107.377 66.6298 107.515 66.3174C107.652 66.0051 107.86 65.7611 108.14 65.5858C108.42 65.4106 108.774 65.323 109.201 65.323C109.608 65.323 109.951 65.4096 110.229 65.583C110.507 65.7564 110.718 66.0002 110.86 66.3146C111.004 66.6289 111.075 66.9974 111.075 67.4205ZM107.852 67.4205C107.852 67.7635 107.899 68.0586 107.995 68.3064C108.09 68.554 108.237 68.7442 108.438 68.8775C108.637 69.0115 108.89 69.0778 109.194 69.0778C109.504 69.0778 109.756 69.0115 109.952 68.8775C110.148 68.7442 110.294 68.554 110.389 68.3064C110.484 68.0586 110.532 67.7636 110.532 67.4205C110.532 66.9061 110.425 66.503 110.212 66.2117C109.999 65.9204 109.661 65.7746 109.201 65.7746C108.891 65.7746 108.637 65.8402 108.438 65.9717C108.237 66.1032 108.09 66.2918 107.995 66.5374C107.899 66.7831 107.852 67.0775 107.852 67.4205Z" fill="black"/>
<path d="M116.795 68.0262C116.795 68.3081 116.738 68.5625 116.624 68.7891C116.51 69.0156 116.335 69.1946 116.101 69.3261C115.867 69.4575 115.569 69.5232 115.207 69.5232C114.7 69.5232 114.314 69.3855 114.049 69.1089C113.784 68.8329 113.652 68.468 113.652 68.0146V65.3857H114.167V68.0318C114.167 68.3632 114.255 68.6201 114.432 68.8029C114.609 68.9862 114.877 69.0776 115.235 69.0776C115.483 69.0776 115.684 69.0332 115.838 68.9431C115.992 68.8536 116.106 68.7303 116.178 68.572C116.251 68.4139 116.287 68.2318 116.287 68.0263V65.3858H116.795V68.0262Z" fill="black"/>
<path d="M120.708 65.3857C121.046 65.3857 121.326 65.4286 121.545 65.5144C121.764 65.6002 121.927 65.7288 122.033 65.9003C122.14 66.0718 122.194 66.2871 122.194 66.5458C122.194 66.763 122.154 66.9441 122.073 67.0887C121.993 67.2337 121.891 67.3488 121.768 67.4345C121.644 67.5202 121.513 67.5881 121.376 67.6376L122.497 69.4663H121.896L120.908 67.7803H120.096V69.4663H119.582V65.3857H120.708ZM120.679 65.8317H120.096V67.3459H120.708C121.039 67.3459 121.281 67.2803 121.433 67.1488C121.586 67.0173 121.662 66.824 121.662 66.5689C121.662 66.3896 121.627 66.2469 121.557 66.1402C121.486 66.0335 121.378 65.9552 121.234 65.9058C121.089 65.8564 120.904 65.8317 120.679 65.8317Z" fill="black"/>
<path d="M129.221 65.3858C129.731 65.3858 130.117 65.4612 130.378 65.6114C130.639 65.7622 130.769 66.0239 130.769 66.3975C130.769 66.5574 130.74 66.6994 130.681 66.8231C130.621 66.9469 130.534 67.05 130.418 67.1316C130.301 67.2135 130.159 67.2699 129.992 67.3003V67.3291C130.163 67.3557 130.318 67.4051 130.458 67.4774C130.597 67.55 130.706 67.6529 130.786 67.7862C130.867 67.9196 130.906 68.0929 130.906 68.3063C130.906 68.5538 130.849 68.7641 130.735 68.9375C130.621 69.1109 130.458 69.2422 130.246 69.3318C130.035 69.4219 129.783 69.4663 129.489 69.4663H128.055V65.3857L129.221 65.3858ZM129.323 67.1232C129.674 67.1232 129.914 67.0672 130.044 66.9545C130.173 66.8421 130.238 66.6758 130.238 66.4545C130.238 66.2298 130.159 66.0686 130 65.9717C129.842 65.8747 129.59 65.8258 129.243 65.8258H128.569V67.1231L129.323 67.1232ZM128.569 67.5519V69.032H129.392C129.754 69.032 130.006 68.9612 130.146 68.8204C130.287 68.6796 130.358 68.4947 130.358 68.2662C130.358 68.1213 130.327 67.9955 130.263 67.8888C130.201 67.7824 130.096 67.6995 129.949 67.6404C129.802 67.5813 129.603 67.5519 129.352 67.5519H128.569Z" fill="black"/>
<path d="M136.584 68.0262C136.584 68.3081 136.528 68.5625 136.413 68.7891C136.299 69.0156 136.124 69.1946 135.89 69.3261C135.656 69.4575 135.358 69.5232 134.996 69.5232C134.489 69.5232 134.103 69.3855 133.838 69.1089C133.573 68.8329 133.441 68.468 133.441 68.0146V65.3857H133.956V68.0318C133.956 68.3632 134.044 68.6201 134.221 68.8029C134.398 68.9862 134.666 69.0776 135.024 69.0776C135.272 69.0776 135.473 69.0332 135.627 68.9431C135.781 68.8536 135.895 68.7303 135.967 68.572C136.04 68.4139 136.076 68.2318 136.076 68.0263V65.3858H136.584V68.0262Z" fill="black"/>
<path d="M141.691 68.3749C141.691 68.619 141.632 68.8255 141.513 68.9952C141.395 69.1648 141.227 69.295 141.008 69.3863C140.789 69.4777 140.53 69.5234 140.234 69.5234C140.081 69.5234 139.935 69.5159 139.796 69.5009C139.657 69.4853 139.53 69.4634 139.416 69.4352C139.302 69.4065 139.201 69.3714 139.113 69.3295V68.8383C139.25 68.899 139.421 68.954 139.625 69.0034C139.829 69.0535 140.039 69.0779 140.256 69.0779C140.458 69.0779 140.628 69.0516 140.765 68.9978C140.902 68.9447 141.005 68.8682 141.073 68.7694C141.142 68.6705 141.176 68.5541 141.176 68.4208C141.176 68.2874 141.148 68.1748 141.09 68.0835C141.033 67.9921 140.935 67.9073 140.796 67.8294C140.657 67.7512 140.464 67.6683 140.216 67.5806C140.041 67.5159 139.888 67.4463 139.756 67.3719C139.625 67.2977 139.515 67.2129 139.428 67.1178C139.34 67.0227 139.274 66.9141 139.23 66.7921C139.187 66.6701 139.165 66.5292 139.165 66.369C139.165 66.1518 139.22 65.9662 139.331 65.8119C139.441 65.6576 139.594 65.5384 139.791 65.4546C139.986 65.3708 140.212 65.3289 140.468 65.3289C140.692 65.3289 140.898 65.3498 141.085 65.3917C141.271 65.4336 141.441 65.489 141.594 65.5576L141.434 65.9976C141.293 65.9368 141.139 65.8852 140.974 65.8433C140.808 65.8014 140.636 65.7804 140.457 65.7804C140.285 65.7804 140.142 65.8051 140.028 65.8549C139.913 65.9043 139.828 65.9738 139.771 66.0633C139.714 66.1527 139.685 66.2567 139.685 66.3749C139.685 66.512 139.714 66.6262 139.771 66.7176C139.828 66.8093 139.921 66.8913 140.05 66.9636C140.18 67.0359 140.355 67.1141 140.576 67.1976C140.816 67.2856 141.019 67.3798 141.185 67.4808C141.351 67.5816 141.477 67.7027 141.562 67.8435C141.648 67.9846 141.691 68.1615 141.691 68.3749Z" fill="black"/>
<path d="M145.377 69.4663H143.902V69.1691L144.382 69.0608V65.7973L143.902 65.683V65.3857H145.377V65.683L144.897 65.7973V69.0608L145.377 69.1691V69.4663Z" fill="black"/>
<path d="M151.113 69.4664H150.513L148.33 66.0774H148.308C148.315 66.165 148.321 66.2689 148.328 66.3887C148.333 66.5089 148.339 66.6366 148.345 66.7718C148.35 66.907 148.353 67.0453 148.353 67.1861V69.4664H147.879V65.3858H148.473L150.651 68.7635H150.673C150.67 68.7027 150.665 68.6114 150.659 68.4891C150.653 68.3671 150.648 68.2337 150.642 68.0891C150.636 67.9442 150.633 67.811 150.633 67.6889V65.3857H151.113V69.4664Z" fill="black"/>
<path d="M156.217 69.4663H153.938V65.3857H156.217V65.8373H154.452V67.1118H156.115V67.5574H154.452V69.015H156.217V69.4663Z" fill="black"/>
<path d="M161.144 68.3749C161.144 68.619 161.085 68.8255 160.967 68.9952C160.848 69.1648 160.68 69.295 160.461 69.3863C160.242 69.4777 159.983 69.5234 159.687 69.5234C159.534 69.5234 159.388 69.5159 159.249 69.5009C159.11 69.4853 158.983 69.4634 158.869 69.4352C158.755 69.4065 158.654 69.3714 158.566 69.3295V68.8383C158.703 68.899 158.874 68.954 159.078 69.0034C159.282 69.0535 159.492 69.0779 159.709 69.0779C159.911 69.0779 160.081 69.0516 160.218 68.9978C160.355 68.9447 160.458 68.8682 160.527 68.7694C160.595 68.6705 160.629 68.5541 160.629 68.4208C160.629 68.2874 160.601 68.1748 160.543 68.0835C160.487 67.9921 160.388 67.9073 160.249 67.8294C160.11 67.7512 159.917 67.6683 159.669 67.5806C159.494 67.5159 159.341 67.4463 159.209 67.3719C159.078 67.2977 158.968 67.2129 158.881 67.1178C158.793 67.0227 158.727 66.9141 158.684 66.7921C158.64 66.6701 158.618 66.5292 158.618 66.369C158.618 66.1518 158.673 65.9662 158.784 65.8119C158.894 65.6576 159.047 65.5384 159.244 65.4546C159.44 65.3708 159.666 65.3289 159.921 65.3289C160.146 65.3289 160.352 65.3498 160.538 65.3917C160.725 65.4336 160.894 65.489 161.047 65.5576L160.887 65.9976C160.746 65.9368 160.593 65.8852 160.427 65.8433C160.261 65.8014 160.089 65.7804 159.91 65.7804C159.738 65.7804 159.595 65.8051 159.481 65.8549C159.367 65.9043 159.281 65.9738 159.224 66.0633C159.167 66.1527 159.138 66.2567 159.138 66.3749C159.138 66.512 159.167 66.6262 159.224 66.7176C159.281 66.8093 159.374 66.8913 159.504 66.9636C159.633 67.0359 159.808 67.1141 160.029 67.1976C160.27 67.2856 160.472 67.3798 160.638 67.4808C160.804 67.5816 160.93 67.7027 161.015 67.8435C161.101 67.9846 161.144 68.1615 161.144 68.3749Z" fill="black"/>
<path d="M165.995 68.3749C165.995 68.619 165.936 68.8255 165.818 68.9952C165.7 69.1648 165.532 69.295 165.312 69.3863C165.093 69.4777 164.835 69.5234 164.538 69.5234C164.386 69.5234 164.24 69.5159 164.101 69.5009C163.962 69.4853 163.835 69.4634 163.721 69.4352C163.606 69.4065 163.506 69.3714 163.418 69.3295V68.8383C163.555 68.899 163.725 68.954 163.929 69.0034C164.133 69.0535 164.344 69.0779 164.561 69.0779C164.763 69.0779 164.932 69.0516 165.07 68.9978C165.207 68.9447 165.309 68.8682 165.378 68.7694C165.446 68.6705 165.481 68.5541 165.481 68.4208C165.481 68.2874 165.453 68.1748 165.395 68.0835C165.338 67.9921 165.24 67.9073 165.101 67.8294C164.962 67.7512 164.769 67.6683 164.521 67.5806C164.346 67.5159 164.192 67.4463 164.061 67.3719C163.929 67.2977 163.82 67.2129 163.732 67.1178C163.645 67.0227 163.579 66.9141 163.535 66.7921C163.491 66.6701 163.469 66.5292 163.469 66.369C163.469 66.1518 163.524 65.9662 163.635 65.8119C163.745 65.6576 163.899 65.5384 164.095 65.4546C164.291 65.3708 164.517 65.3289 164.772 65.3289C164.997 65.3289 165.203 65.3498 165.39 65.3917C165.576 65.4336 165.746 65.489 165.898 65.5576L165.738 65.9976C165.597 65.9368 165.444 65.8852 165.278 65.8433C165.112 65.8014 164.94 65.7804 164.761 65.7804C164.59 65.7804 164.446 65.8051 164.333 65.8549C164.218 65.9043 164.132 65.9738 164.075 66.0633C164.018 66.1527 163.99 66.2567 163.99 66.3749C163.99 66.512 164.018 66.6262 164.075 66.7176C164.132 66.8093 164.226 66.8913 164.355 66.9636C164.485 67.0359 164.66 67.1141 164.881 67.1976C165.121 67.2856 165.324 67.3798 165.49 67.4808C165.656 67.5816 165.781 67.7027 165.867 67.8435C165.953 67.9846 165.995 68.1615 165.995 68.3749Z" fill="black"/>
<path d="M173.505 67.312H174.916V69.3119C174.695 69.3845 174.473 69.4376 174.248 69.4721C174.023 69.5065 173.768 69.5234 173.482 69.5234C173.059 69.5234 172.703 69.4388 172.413 69.2693C172.124 69.0997 171.904 68.8575 171.753 68.5433C171.602 68.2291 171.527 67.8568 171.527 67.4262C171.527 66.9996 171.611 66.6298 171.779 66.3174C171.947 66.0051 172.188 65.7623 172.502 65.5886C172.816 65.4153 173.196 65.3286 173.642 65.3286C173.871 65.3286 174.086 65.3496 174.29 65.3915C174.495 65.4334 174.684 65.4925 174.859 65.5686L174.665 66.0146C174.52 65.9498 174.357 65.8944 174.177 65.8487C173.995 65.803 173.808 65.7802 173.613 65.7802C173.29 65.7802 173.011 65.8468 172.779 65.9801C172.546 66.1137 172.369 66.303 172.248 66.549C172.126 66.7946 172.064 67.087 172.064 67.4262C172.064 67.75 172.117 68.0367 172.222 68.2864C172.327 68.5358 172.491 68.7305 172.716 68.8694C172.941 69.0083 173.236 69.0778 173.602 69.0778C173.781 69.0778 173.933 69.0684 174.059 69.049C174.185 69.0302 174.299 69.007 174.402 68.9807V67.7691H173.505V67.312Z" fill="black"/>
<path d="M178.735 65.3857C179.074 65.3857 179.353 65.4286 179.572 65.5144C179.791 65.6002 179.954 65.7288 180.061 65.9003C180.168 66.0718 180.221 66.2871 180.221 66.5458C180.221 66.763 180.181 66.9441 180.101 67.0887C180.021 67.2337 179.919 67.3488 179.795 67.4345C179.671 67.5202 179.541 67.5881 179.404 67.6376L180.524 69.4663H179.924L178.935 67.7803H178.124V69.4663H177.609V65.3857H178.735ZM178.706 65.8317H178.124V67.3459H178.735C179.066 67.3459 179.309 67.2803 179.461 67.1488C179.613 67.0173 179.69 66.824 179.69 66.5689C179.69 66.3896 179.654 66.2469 179.584 66.1402C179.513 66.0335 179.406 65.9552 179.261 65.9058C179.116 65.8564 178.931 65.8317 178.706 65.8317Z" fill="black"/>
<path d="M186.438 67.4205C186.438 67.7366 186.398 68.0236 186.318 68.2805C186.238 68.5377 186.119 68.7599 185.961 68.9464C185.803 69.1329 185.607 69.2762 185.372 69.3751C185.138 69.474 184.867 69.5234 184.558 69.5234C184.238 69.5234 183.96 69.4733 183.723 69.372C183.487 69.2712 183.291 69.1285 183.135 68.9432C182.979 68.7586 182.862 68.5364 182.786 68.2776C182.71 68.0186 182.672 67.731 182.672 67.4146C182.672 66.9956 182.741 66.6298 182.878 66.3174C183.015 66.0051 183.223 65.7611 183.504 65.5858C183.783 65.4106 184.137 65.323 184.564 65.323C184.971 65.323 185.314 65.4096 185.592 65.583C185.871 65.7564 186.081 66.0002 186.224 66.3146C186.367 66.6289 186.438 66.9974 186.438 67.4205ZM183.215 67.4205C183.215 67.7635 183.263 68.0586 183.358 68.3064C183.453 68.554 183.601 68.7442 183.801 68.8775C184.001 69.0115 184.253 69.0778 184.558 69.0778C184.867 69.0778 185.119 69.0115 185.315 68.8775C185.511 68.7442 185.657 68.554 185.752 68.3064C185.848 68.0586 185.895 67.7636 185.895 67.4205C185.895 66.9061 185.789 66.503 185.575 66.2117C185.362 65.9204 185.025 65.7746 184.564 65.7746C184.255 65.7746 184.001 65.8402 183.801 65.9717C183.601 66.1032 183.453 66.2918 183.358 66.5374C183.263 66.7831 183.215 67.0775 183.215 67.4205Z" fill="black"/>
<path d="M193.684 65.3857L192.598 69.4662H192.078L191.283 66.7916C191.26 66.7116 191.237 66.6295 191.215 66.5457C191.192 66.4621 191.171 66.382 191.151 66.3057C191.133 66.2297 191.116 66.1639 191.103 66.1085C191.089 66.0535 191.081 66.0124 191.078 65.9858C191.074 66.0124 191.067 66.0534 191.058 66.1085C191.048 66.1639 191.034 66.2296 191.014 66.3057C190.996 66.382 190.976 66.463 190.954 66.5488C190.934 66.6345 190.91 66.7213 190.883 66.8089L190.111 69.4662H189.591L188.512 65.3857H189.049L189.683 67.8775C189.706 67.9651 189.727 68.0518 189.746 68.1375C189.765 68.2233 189.783 68.3072 189.8 68.3888C189.817 68.4708 189.832 68.5499 189.843 68.6263C189.855 68.7027 189.866 68.7766 189.877 68.8491C189.889 68.7728 189.901 68.6946 189.914 68.6151C189.928 68.535 189.944 68.4518 189.963 68.366C189.982 68.2803 190.003 68.1939 190.026 68.1059C190.049 68.0184 190.072 67.9326 190.095 67.8487L190.815 65.3857H191.346L192.095 67.8659C192.122 67.9539 192.146 68.0424 192.169 68.1319C192.192 68.2214 192.213 68.3081 192.232 68.3916C192.251 68.4755 192.267 68.5562 192.281 68.635C192.294 68.7126 192.306 68.784 192.318 68.8491C192.329 68.7539 192.344 68.6538 192.363 68.5486C192.383 68.4441 192.405 68.3346 192.432 68.2204C192.458 68.1059 192.487 67.9897 192.518 67.8717L193.146 65.3855L193.684 65.3857Z" fill="black"/>
<path d="M195.598 69.1579C195.598 69.017 195.632 68.9175 195.701 68.8606C195.769 68.803 195.851 68.7749 195.947 68.7749C196.046 68.7749 196.13 68.8031 196.201 68.8606C196.271 68.9175 196.307 69.017 196.307 69.1579C196.307 69.295 196.271 69.3938 196.201 69.4551C196.13 69.5159 196.046 69.5465 195.947 69.5465C195.851 69.5465 195.769 69.5158 195.701 69.4551C195.632 69.3938 195.598 69.295 195.598 69.1579Z" fill="black"/>
<path d="M198.848 69.1579C198.848 69.017 198.882 68.9175 198.951 68.8606C199.019 68.803 199.101 68.7749 199.197 68.7749C199.296 68.7749 199.38 68.8031 199.451 68.8606C199.521 68.9175 199.557 69.017 199.557 69.1579C199.557 69.295 199.521 69.3938 199.451 69.4551C199.38 69.5159 199.296 69.5465 199.197 69.5465C199.101 69.5465 199.019 69.5158 198.951 69.4551C198.882 69.3938 198.848 69.295 198.848 69.1579Z" fill="black"/>
<path d="M202.09 69.1579C202.09 69.017 202.124 68.9175 202.193 68.8606C202.261 68.803 202.343 68.7749 202.439 68.7749C202.538 68.7749 202.622 68.8031 202.693 68.8606C202.763 68.9175 202.799 69.017 202.799 69.1579C202.799 69.295 202.763 69.3938 202.693 69.4551C202.622 69.5159 202.538 69.5465 202.439 69.5465C202.343 69.5465 202.261 69.5158 202.193 69.4551C202.124 69.3938 202.09 69.295 202.09 69.1579Z" fill="black"/>
<path d="M205.336 69.1579C205.336 69.017 205.37 68.9175 205.439 68.8606C205.507 68.803 205.589 68.7749 205.685 68.7749C205.784 68.7749 205.869 68.8031 205.939 68.8606C206.009 68.9175 206.045 69.017 206.045 69.1579C206.045 69.295 206.009 69.3938 205.939 69.4551C205.869 69.5159 205.784 69.5465 205.685 69.5465C205.589 69.5465 205.507 69.5158 205.439 69.4551C205.37 69.3938 205.336 69.295 205.336 69.1579Z" fill="black"/>
<defs>
<linearGradient id="paint0_linear_3119_1827" x1="-2.22964" y1="0.958245" x2="60.4736" y2="102.248" gradientUnits="userSpaceOnUse">
<stop stop-color="#DCE35B"/>
<stop offset="1" stop-color="#FF5E62"/>
</linearGradient>
<linearGradient id="paint1_linear_3119_1827" x1="4.10785" y1="-2.96504" x2="66.8111" y2="98.3247" gradientUnits="userSpaceOnUse">
<stop stop-color="#DCE35B"/>
<stop offset="1" stop-color="#FF5E62"/>
</linearGradient>
<linearGradient id="paint2_linear_3119_1827" x1="-20.1168" y1="12.0306" x2="42.5863" y2="113.32" gradientUnits="userSpaceOnUse">
<stop stop-color="#DCE35B"/>
<stop offset="1" stop-color="#FF5E62"/>
</linearGradient>
</defs>
</svg>
